<?xml version="1.0" encoding="utf-8"?>
<!-- Generator: Adobe Illustrator 25.0.1, SVG Export Plug-In . SVG Version: 6.00 Build 0)  -->
<svg version="1.1" xmlns="http://www.w3.org/2000/svg" xmlns:xlink="http://www.w3.org/1999/xlink" x="0px" y="0px"
	 viewBox="0 0 63.24 27.26" style="enable-background:new 0 0 63.24 27.26;" xml:space="preserve">
<style type="text/css">
	.st0{opacity:0.5;}
	.st1{fill:#93278F;}
</style>
<g class="st0">
	<g id="Layer_1">
		<g>
			<path class="st1" d="M13.69,13.63c0,3.45-0.28,6.09-1.48,7.65c-0.82,1.07-2.12,1.65-3.67,1.65c-1.52,0-2.83-0.58-3.67-1.65
				c-1.2-1.56-1.46-4.2-1.46-7.65c0-3.43,0.26-6.07,1.46-7.63c0.84-1.07,2.14-1.67,3.67-1.67c1.54,0,2.85,0.6,3.67,1.67
				C13.41,7.57,13.69,10.2,13.69,13.63z M6.31,13.63c0,2.92,0.15,5.08,0.79,6.05c0.32,0.47,0.84,0.73,1.44,0.73
				c0.6,0,1.14-0.26,1.46-0.73c0.64-0.97,0.77-3.13,0.77-6.05c0-2.89-0.13-5.06-0.77-6.02C9.68,7.14,9.14,6.88,8.54,6.88
				c-0.6,0-1.12,0.26-1.44,0.73C6.46,8.57,6.31,10.74,6.31,13.63z M19.48,23.99h-2.94V4.31h2.94V23.99z"/>
			<path class="st1" d="M23.88,9.95c0-2.08,0.6-3.62,1.67-4.59c0.88-0.77,2.08-1.16,3.54-1.16c1.48,0,2.66,0.39,3.54,1.16
				c1.07,0.96,1.67,2.51,1.67,4.59c0,2.1-0.6,3.62-1.67,4.59c-0.88,0.79-2.06,1.18-3.54,1.18c-1.46,0-2.66-0.39-3.54-1.18
				C24.48,13.57,23.88,12.05,23.88,9.95z M25.26,24.08v-6.97h2.94v4.42h12.24v2.55H25.26z M26.76,9.95c0,1.22,0.28,2.1,0.75,2.62
				c0.39,0.41,0.92,0.62,1.59,0.62c0.66,0,1.2-0.21,1.59-0.62c0.47-0.51,0.75-1.39,0.75-2.62s-0.28-2.08-0.75-2.62
				c-0.39-0.41-0.92-0.62-1.59-0.62c-0.67,0-1.2,0.21-1.59,0.62C27.04,7.87,26.76,8.72,26.76,9.95z M37.15,18.11V4.31h2.94v13.81
				H37.15z"/>
			<path class="st1" d="M49.71,18.5c-1.01,1.93-3.32,3.49-5.68,4.18v-2.7c2.27-1.03,4.22-2.83,4.22-8.36V4.54h2.94v7.08
				c0,5.53,1.95,7.33,4.2,8.36v2.7C53.03,22,50.74,20.41,49.71,18.5z M60.66,23.99h-2.94V13.74h-4.31v-2.55h4.31V4.31h2.94V23.99z"
				/>
		</g>
	</g>
</g>
<g>
	<g>
		<path class="st1" d="M13.69,13.63c0,3.45-0.28,6.09-1.48,7.65c-0.82,1.07-2.12,1.65-3.67,1.65c-1.52,0-2.83-0.58-3.67-1.65
			c-1.2-1.56-1.46-4.2-1.46-7.65c0-3.43,0.26-6.07,1.46-7.63c0.84-1.07,2.14-1.67,3.67-1.67c1.54,0,2.85,0.6,3.67,1.67
			C13.41,7.57,13.69,10.2,13.69,13.63z M6.31,13.63c0,2.92,0.15,5.08,0.79,6.05c0.32,0.47,0.84,0.73,1.44,0.73
			c0.6,0,1.14-0.26,1.46-0.73c0.64-0.97,0.77-3.13,0.77-6.05c0-2.89-0.13-5.06-0.77-6.02C9.68,7.14,9.14,6.88,8.54,6.88
			c-0.6,0-1.12,0.26-1.44,0.73C6.46,8.57,6.31,10.74,6.31,13.63z M19.48,23.99h-2.94V4.31h2.94V23.99z"/>
		<path class="st1" d="M23.88,9.95c0-2.08,0.6-3.62,1.67-4.59c0.88-0.77,2.08-1.16,3.54-1.16c1.48,0,2.66,0.39,3.54,1.16
			c1.07,0.96,1.67,2.51,1.67,4.59c0,2.1-0.6,3.62-1.67,4.59c-0.88,0.79-2.06,1.18-3.54,1.18c-1.46,0-2.66-0.39-3.54-1.18
			C24.48,13.57,23.88,12.05,23.88,9.95z M25.26,24.08v-6.97h2.94v4.42h12.24v2.55H25.26z M26.76,9.95c0,1.22,0.28,2.1,0.75,2.62
			c0.39,0.41,0.92,0.62,1.59,0.62c0.66,0,1.2-0.21,1.59-0.62c0.47-0.51,0.75-1.39,0.75-2.62s-0.28-2.08-0.75-2.62
			c-0.39-0.41-0.92-0.62-1.59-0.62c-0.67,0-1.2,0.21-1.59,0.62C27.04,7.87,26.76,8.72,26.76,9.95z M37.15,18.11V4.31h2.94v13.81
			H37.15z"/>
		<path class="st1" d="M49.71,18.5c-1.01,1.93-3.32,3.49-5.68,4.18v-2.7c2.27-1.03,4.22-2.83,4.22-8.36V4.54h2.94v7.08
			c0,5.53,1.95,7.33,4.2,8.36v2.7C53.03,22,50.74,20.41,49.71,18.5z M60.66,23.99h-2.94V13.74h-4.31v-2.55h4.31V4.31h2.94V23.99z"/>
	</g>
</g>
</svg>
